<svg xmlns="http://www.w3.org/2000/svg" width="136" height="240" fill="none"><path stroke="#dde1e6" stroke-width=".5" d="m12.383 20.229-2.363-.788-3.938 1.575-4.726 2.363H.568l17.328 18.903L33.65 58.035l11.026 8.664 2.363 6.3.788 14.178 4.726 8.664 6.3 9.452 5.514 14.965 3.15 3.15 13.39-9.451 3.151 1.575 1.575 3.938v3.938l-2.363 4.726-3.938 4.726-20.478 11.027-2.363 9.451-1.575 14.177v29.143M133.678 88.752l-9.452 7.877-1.575 5.513-1.575 6.301v7.876l-9.452 8.664-7.876 1.576-7.876-3.151-1.576 8.664c-1.05 0-2.52.945 0 4.726 2.52 3.78 4.726 12.077 5.514 15.752v7.089l3.938 9.452v8.664l4.725 3.15"/><path stroke="#dde1e6" stroke-width=".5" d="m12.383 20.229 3.938 8.664 7.089.787 5.513-4.725 3.15 3.15 1.576 10.24-1.575 3.937-3.151-1.575 4.726 7.089-.788 3.15 7.089 5.514 5.513-2.363 10.24-.788-1.576-3.15v-3.15l-1.575-1.576.788-5.514-2.363-4.725v-6.301l4.725-3.15-3.938-6.302-.787-5.513-2.363-10.24 3.15-.787 2.363 3.15 3.15-1.575 2.364 2.363 3.938-5.513 2.363 4.725.787 4.726 3.938 3.938-4.725 3.15-.788 7.09 2.363 3.938v5.513l-2.363 2.363.788 3.938 3.15-4.726h2.363l7.089-3.938h2.362l2.363 2.363 2.363-4.726"/><path fill="#546a81" stroke="#546a81" stroke-width=".5" d="m.568 23.38 8.664-3.939 3.15.788 3.939 8.664 7.089.787 5.513-4.725 3.15 3.15 1.576 10.24-1.575 3.937-3.939-2.362 5.514 7.876-.788 3.15 7.089 5.514 5.513-2.363 10.24-.788-1.576-3.938v-2.363l-1.575-2.363.788-4.726-2.363-4.725v-6.301l4.725-3.15-3.938-6.302-.787-6.3-2.363-9.452 3.15-.788 2.363 3.15 3.15-1.575 2.364 2.363 3.938-6.3 2.363 5.512.787 4.726 3.938 3.938-4.725 3.15-.788 7.09 2.363 3.938v5.513l-2.363 2.363.788 4.726 3.15-5.514h2.363l7.089-3.938h2.362l2.363 2.363 2.363-4.726 2.363 3.15 2.363 7.877 6.301 3.938 7.876 1.576 5.514-1.576 2.363-3.938h1.575c1.575.525 4.726 1.733 4.726 2.363s.525 3.413.787 4.726l2.363 6.3.788 1.576V69.85c1.05-1.837 3.623-4.725 5.513-1.575 1.891 3.15 3.413 6.564 3.938 7.876.263.788.63 2.52 0 3.151-.221.221-.384.32-.502.342l3.653 4.384-1.575 5.513-9.452 6.301-3.15 11.815v8.664l-8.664 8.663-8.664 2.363-7.877-3.938-1.575 8.664-.787.788 6.3 19.69v7.089l3.939 10.239v7.877l3.938 3.15-3.938 18.116c1.05 4.725 2.993 14.807 2.363 17.327-.788 3.151-.788 9.452-2.363 10.24-1.26.63-4.2 7.088-5.514 10.239l-.787 2.363-22.054-16.541-6.3-12.602-14.178-13.389v-28.355l1.575-14.177 2.363-10.239 19.69-11.027 4.726-4.726 2.363-5.513v-3.939l-1.575-3.15-3.15-1.575-14.178 9.451-3.15-3.15-4.726-14.965-11.815-18.116V73l-2.362-7.089-11.027-7.876-11.027-10.24z"/></svg>