<svg xmlns="http://www.w3.org/2000/svg" width="115" height="211" fill="none"><path fill="#546a81" stroke="#e6f3ff" d="m62.241.649 11.815 2.363 1.575 9.451.788 6.301 1.575 6.301 1.575 1.576 3.15 8.664 3.151 1.575 1.576 3.15h4.725l.788 2.363 2.363.788 3.938 3.938 5.513 3.938h2.363l.788 5.514 5.513 1.575.788 3.15-3.151 3.938.788 7.09-.788 2.362 1.576 3.938-.788 3.15h-4.726v5.514l-3.15 3.15v3.151l-4.726 4.726-5.513 11.027-4.726-1.576-3.15 5.514-6.302 7.876.788 2.363-8.664 7.876-3.15-1.575-4.726 2.363 1.575 1.575-12.602 11.027-7.876 12.602 1.575 6.301 7.089-3.938v13.39h-4.726l3.938 7.088-3.938 4.726 3.15 5.513-1.575 7.089 2.363 4.726v3.15l-5.514 4.726-3.15-2.363-3.15-3.15-3.151-7.876-.788-4.726-4.725-2.363h-1.576l-2.363 3.938-5.513 1.575-7.876-1.575-6.301-3.938-2.363-7.876-2.363-3.151v-4.726l-3.15-3.15 3.938-2.363 7.088.788 1.575 2.362h3.939v-5.513l3.15-3.938-.788-1.575 3.939-3.939-2.363-3.938 6.3.788-.787-4.726h2.363l-5.513-5.513-3.15-4.726v-4.726l-2.364-5.513-.787-9.452-3.15-6.301 5.512-3.938 2.363 1.575 4.726-6.301 2.363-7.088 5.513-7.089v-1.575h5.514l.787-3.15-.787-.788 2.363-3.939h.787l.788-3.15-3.15-1.575 1.575-3.939-.788-3.938 2.363-5.513v-3.15l1.575-6.302-1.575-7.088 2.363-2.363-.788-3.15h6.301l3.938-7.877 3.939.788.787-3.938 1.575-1.576-2.362-3.938.787-6.3 3.938-7.877z"/></svg>